<svg width="20" height="20" viewBox="0 0 20 20" fill="none" xmlns="http://www.w3.org/2000/svg">
<path d="M16.3584 3.0416C16.2616 2.96328 16.1484 2.90766 16.0273 2.87882C15.9062 2.84997 15.7801 2.84865 15.6584 2.87493C14.7679 3.06155 13.8487 3.06393 12.9572 2.88192C12.0658 2.69991 11.2211 2.33736 10.475 1.8166C10.3355 1.71983 10.1698 1.66797 10 1.66797C9.83027 1.66797 9.66454 1.71983 9.52505 1.8166C8.77901 2.33736 7.93427 2.69991 7.04285 2.88192C6.15143 3.06393 5.23218 3.06155 4.34171 2.87493C4.21999 2.84865 4.09393 2.84997 3.9728 2.87882C3.85166 2.90766 3.73853 2.96328 3.64171 3.0416C3.54503 3.12003 3.46715 3.21913 3.41379 3.33161C3.36043 3.44409 3.33296 3.5671 3.33338 3.6916V9.89993C3.33264 11.0947 3.61736 12.2724 4.16382 13.3349C4.71029 14.3974 5.5027 15.314 6.47505 16.0083L9.51671 18.1749C9.65785 18.2754 9.82679 18.3294 10 18.3294C10.1733 18.3294 10.3422 18.2754 10.4834 18.1749L13.525 16.0083C14.4974 15.314 15.2898 14.3974 15.8363 13.3349C16.3827 12.2724 16.6675 11.0947 16.6667 9.89993V3.6916C16.6671 3.5671 16.6397 3.44409 16.5863 3.33161C16.5329 3.21913 16.4551 3.12003 16.3584 3.0416ZM15 9.89993C15.0007 10.8289 14.7795 11.7446 14.3548 12.5708C13.9301 13.397 13.3142 14.1098 12.5584 14.6499L10 16.4749L7.44171 14.6499C6.68591 14.1098 6.07003 13.397 5.64534 12.5708C5.22064 11.7446 4.99941 10.8289 5.00005 9.89993V4.64993C6.74707 4.79946 8.49675 4.39412 10 3.4916C11.5033 4.39412 13.253 4.79946 15 4.64993V9.89993ZM11.2834 7.9916L9.04171 10.2416L8.30005 9.4916C8.14313 9.33468 7.9303 9.24652 7.70838 9.24652C7.48646 9.24652 7.27363 9.33468 7.11671 9.4916C6.95979 9.64852 6.87164 9.86135 6.87164 10.0833C6.87164 10.3052 6.95979 10.518 7.11671 10.6749L8.45005 12.0083C8.52751 12.0864 8.61968 12.1484 8.72123 12.1907C8.82278 12.233 8.9317 12.2548 9.04171 12.2548C9.15172 12.2548 9.26064 12.233 9.36219 12.1907C9.46374 12.1484 9.55591 12.0864 9.63338 12.0083L12.5 9.1666C12.657 9.00968 12.7451 8.79685 12.7451 8.57493C12.7451 8.35301 12.657 8.14018 12.5 7.98326C12.3431 7.82634 12.1303 7.73819 11.9084 7.73819C11.6865 7.73819 11.4736 7.82634 11.3167 7.98326L11.2834 7.9916Z" fill="#363636"/>
</svg>
