<svg width="20" height="20" viewBox="0 0 20 20" fill="none" xmlns="http://www.w3.org/2000/svg">
<path d="M9.11662 5.06674C9.40892 5.02193 9.70423 4.99965 9.99995 5.00007C12.65 5.00007 15.1416 6.90841 16.5916 10.0001C16.3699 10.4706 16.1194 10.927 15.8416 11.3667C15.7534 11.5032 15.7071 11.6626 15.7083 11.8251C15.7101 12.0069 15.7714 12.1832 15.8828 12.327C15.9942 12.4707 16.1496 12.5741 16.3252 12.6213C16.5009 12.6685 16.6871 12.657 16.8556 12.5885C17.0241 12.5199 17.1655 12.3982 17.2583 12.2417C17.6466 11.6317 17.9838 10.9906 18.2666 10.3251C18.3113 10.2211 18.3344 10.1091 18.3344 9.99591C18.3344 9.88272 18.3113 9.77072 18.2666 9.66674C16.5833 5.75841 13.4166 3.33341 9.99995 3.33341C9.60884 3.33144 9.21835 3.36491 8.83328 3.43341C8.72385 3.45201 8.61915 3.49199 8.52516 3.55105C8.43118 3.61012 8.34975 3.68712 8.28552 3.77766C8.22129 3.86819 8.17553 3.9705 8.15084 4.07872C8.12615 4.18694 8.12301 4.29897 8.14162 4.40841C8.16022 4.51784 8.2002 4.62254 8.25926 4.71653C8.31833 4.81051 8.39533 4.89194 8.48587 4.95617C8.57641 5.0204 8.67871 5.06616 8.78693 5.09085C8.89515 5.11554 9.00718 5.11868 9.11662 5.10007V5.06674ZM3.09162 1.90841C3.01392 1.83071 2.92168 1.76907 2.82016 1.72702C2.71864 1.68497 2.60983 1.66333 2.49995 1.66333C2.39007 1.66333 2.28126 1.68497 2.17974 1.72702C2.07822 1.76907 1.98598 1.83071 1.90828 1.90841C1.75136 2.06533 1.66321 2.27816 1.66321 2.50007C1.66321 2.72199 1.75136 2.93482 1.90828 3.09174L4.49162 5.66674C3.31293 6.80135 2.37483 8.16173 1.73328 9.66674C1.6874 9.77188 1.66371 9.88536 1.66371 10.0001C1.66371 10.1148 1.6874 10.2283 1.73328 10.3334C3.41662 14.2417 6.58328 16.6667 9.99995 16.6667C11.4975 16.6564 12.9598 16.2105 14.2083 15.3834L16.9083 18.0917C16.9858 18.1698 17.0779 18.2318 17.1795 18.2741C17.281 18.3165 17.3899 18.3382 17.5 18.3382C17.61 18.3382 17.7189 18.3165 17.8204 18.2741C17.922 18.2318 18.0141 18.1698 18.0916 18.0917C18.1697 18.0143 18.2317 17.9221 18.274 17.8206C18.3163 17.719 18.3381 17.6101 18.3381 17.5001C18.3381 17.3901 18.3163 17.2811 18.274 17.1796C18.2317 17.078 18.1697 16.9859 18.0916 16.9084L3.09162 1.90841ZM8.39162 9.56674L10.4333 11.6084C10.2924 11.6488 10.1465 11.6684 9.99995 11.6667C9.55792 11.6667 9.134 11.4911 8.82144 11.1786C8.50888 10.866 8.33328 10.4421 8.33328 10.0001C8.33158 9.85356 8.35123 9.70758 8.39162 9.56674ZM9.99995 15.0001C7.34995 15.0001 4.85828 13.0917 3.41662 10.0001C3.95502 8.81153 4.71918 7.73889 5.66662 6.84174L7.14162 8.33341C6.79516 8.96574 6.66307 9.69336 6.76517 10.4071C6.86727 11.1209 7.19805 11.7823 7.70789 12.2921C8.21773 12.802 8.87914 13.1328 9.5929 13.2349C10.3067 13.337 11.0343 13.2049 11.6666 12.8584L12.9916 14.1667C12.0842 14.7008 11.0528 14.9881 9.99995 15.0001Z" fill="#363636"/>
</svg>
