<svg width="20" height="20" viewBox="0 0 20 20" fill="none" xmlns="http://www.w3.org/2000/svg">
<path d="M18.2667 9.66659C16.5834 5.75825 13.4167 3.33325 10.0001 3.33325C6.58339 3.33325 3.41672 5.75825 1.73339 9.66659C1.6875 9.77172 1.66382 9.8852 1.66382 9.99992C1.66382 10.1146 1.6875 10.2281 1.73339 10.3333C3.41672 14.2416 6.58339 16.6666 10.0001 16.6666C13.4167 16.6666 16.5834 14.2416 18.2667 10.3333C18.3126 10.2281 18.3363 10.1146 18.3363 9.99992C18.3363 9.8852 18.3126 9.77172 18.2667 9.66659ZM10.0001 14.9999C7.35839 14.9999 4.85839 13.0916 3.41672 9.99992C4.85839 6.90825 7.35839 4.99992 10.0001 4.99992C12.6417 4.99992 15.1417 6.90825 16.5834 9.99992C15.1417 13.0916 12.6417 14.9999 10.0001 14.9999ZM10.0001 6.66659C9.34078 6.66659 8.69632 6.86208 8.14816 7.22835C7.59999 7.59462 7.17275 8.11522 6.92046 8.72431C6.66816 9.33339 6.60215 10.0036 6.73077 10.6502C6.85939 11.2968 7.17686 11.8908 7.64303 12.3569C8.10921 12.8231 8.70315 13.1406 9.34975 13.2692C9.99636 13.3978 10.6666 13.3318 11.2757 13.0795C11.8848 12.8272 12.4053 12.4 12.7716 11.8518C13.1379 11.3037 13.3334 10.6592 13.3334 9.99992C13.3334 9.11586 12.9822 8.26802 12.3571 7.6429C11.732 7.01777 10.8841 6.66659 10.0001 6.66659ZM10.0001 11.6666C9.67042 11.6666 9.34819 11.5688 9.07411 11.3857C8.80002 11.2026 8.5864 10.9423 8.46026 10.6377C8.33411 10.3332 8.3011 9.99807 8.36541 9.67477C8.42972 9.35147 8.58846 9.05449 8.82154 8.82141C9.05463 8.58832 9.3516 8.42958 9.6749 8.36528C9.99821 8.30097 10.3333 8.33397 10.6379 8.46012C10.9424 8.58627 11.2027 8.79989 11.3858 9.07397C11.569 9.34805 11.6667 9.67028 11.6667 9.99992C11.6667 10.4419 11.4911 10.8659 11.1786 11.1784C10.866 11.491 10.4421 11.6666 10.0001 11.6666Z" fill="#241D0A"/>
</svg>
