<svg width="20" height="20" viewBox="0 0 20 20" fill="none" xmlns="http://www.w3.org/2000/svg">
<g clip-path="url(#clip0_1422_1625)">
<path d="M9.99998 0.833252C8.18699 0.833252 6.41471 1.37087 4.90726 2.37811C3.39981 3.38536 2.22489 4.817 1.53109 6.49199C0.837285 8.16698 0.655754 10.0101 1.00945 11.7882C1.36315 13.5664 2.23619 15.1997 3.51817 16.4817C4.80015 17.7637 6.4335 18.6368 8.21166 18.9904C9.98981 19.3441 11.8329 19.1626 13.5079 18.4688C15.1829 17.775 16.6145 16.6001 17.6218 15.0926C18.629 13.5852 19.1667 11.8129 19.1667 9.99992C19.1667 7.56877 18.2009 5.23719 16.4818 3.51811C14.7627 1.79902 12.4311 0.833252 9.99998 0.833252ZM9.99998 17.4999C8.51662 17.4999 7.06658 17.0601 5.83321 16.2359C4.59984 15.4118 3.63854 14.2405 3.07089 12.87C2.50323 11.4996 2.3547 9.9916 2.64409 8.53674C2.93348 7.08188 3.64779 5.74551 4.69668 4.69662C5.74558 3.64772 7.08195 2.93342 8.53681 2.64403C9.99166 2.35464 11.4997 2.50316 12.8701 3.07082C14.2406 3.63848 15.4119 4.59977 16.236 5.83314C17.0601 7.06651 17.5 8.51656 17.5 9.99992C17.5 11.989 16.7098 13.8967 15.3033 15.3032C13.8968 16.7097 11.9891 17.4999 9.99998 17.4999ZM10.4917 6.39159C10.9195 6.40251 11.3391 6.51195 11.7177 6.7114C12.0964 6.91085 12.424 7.19494 12.675 7.54159C12.8088 7.71711 13.0068 7.83236 13.2256 7.86204C13.4443 7.89173 13.6659 7.83342 13.8417 7.69992C13.9291 7.63297 14.0024 7.54934 14.0574 7.45386C14.1123 7.35839 14.1478 7.25298 14.1618 7.14371C14.1757 7.03444 14.1679 6.92349 14.1387 6.81728C14.1095 6.71107 14.0595 6.6117 13.9917 6.52492C13.5862 5.97566 13.0594 5.52746 12.4523 5.21524C11.8452 4.90302 11.1742 4.73522 10.4917 4.72492C9.53734 4.75269 8.61481 5.07405 7.8498 5.64521C7.08478 6.21636 6.51449 7.00952 6.21665 7.91658H4.99998C4.77897 7.91658 4.56701 8.00438 4.41073 8.16066C4.25445 8.31694 4.16665 8.5289 4.16665 8.74992C4.16665 8.97093 4.25445 9.18289 4.41073 9.33917C4.56701 9.49545 4.77897 9.58325 4.99998 9.58325H5.83332V10.4166H4.99998C4.77897 10.4166 4.56701 10.5044 4.41073 10.6607C4.25445 10.8169 4.16665 11.0289 4.16665 11.2499C4.16665 11.4709 4.25445 11.6829 4.41073 11.8392C4.56701 11.9955 4.77897 12.0833 4.99998 12.0833H6.21665C6.51449 12.9903 7.08478 13.7835 7.8498 14.3546C8.61481 14.9258 9.53734 15.2471 10.4917 15.2749C11.1742 15.2646 11.8452 15.0968 12.4523 14.7846C13.0594 14.4724 13.5862 14.0242 13.9917 13.4749C14.0813 13.3916 14.1515 13.2895 14.1972 13.176C14.243 13.0625 14.2632 12.9403 14.2564 12.8181C14.2495 12.6959 14.2159 12.5767 14.1578 12.469C14.0997 12.3613 14.0186 12.2677 13.9202 12.1948C13.8219 12.122 13.7087 12.0717 13.5887 12.0476C13.4687 12.0234 13.3449 12.026 13.226 12.0551C13.1071 12.0843 12.9961 12.1392 12.9009 12.2161C12.8057 12.293 12.7285 12.3899 12.675 12.4999C12.424 12.8466 12.0964 13.1307 11.7177 13.3301C11.3391 13.5296 10.9195 13.639 10.4917 13.6499C9.98312 13.6298 9.48924 13.4739 9.06133 13.1984C8.63342 12.9229 8.28709 12.5379 8.05832 12.0833H9.99998C10.221 12.0833 10.433 11.9955 10.5892 11.8392C10.7455 11.6829 10.8333 11.4709 10.8333 11.2499C10.8333 11.0289 10.7455 10.8169 10.5892 10.6607C10.433 10.5044 10.221 10.4166 9.99998 10.4166H7.54165C7.51952 10.2786 7.5056 10.1395 7.49998 9.99992C7.5056 9.86033 7.51952 9.72119 7.54165 9.58325H9.99998C10.221 9.58325 10.433 9.49545 10.5892 9.33917C10.7455 9.18289 10.8333 8.97093 10.8333 8.74992C10.8333 8.5289 10.7455 8.31694 10.5892 8.16066C10.433 8.00438 10.221 7.91658 9.99998 7.91658H8.05832C8.29263 7.46976 8.64135 7.09314 9.06887 6.82521C9.49639 6.55728 9.98737 6.40764 10.4917 6.39159Z" fill="#241D0A"/>
</g>
<defs>
<clipPath id="clip0_1422_1625">
<rect width="20" height="20" fill="white"/>
</clipPath>
</defs>
</svg>
