<svg width="40" height="40" viewBox="0 0 40 40" fill="none" xmlns="http://www.w3.org/2000/svg">
<path d="M36.2283 6.25166L32.195 2.21832C31.8824 1.90587 31.4586 1.73035 31.0166 1.73035C30.5747 1.73035 30.1509 1.90587 29.8383 2.21832L22.205 9.85166C21.8924 10.1641 21.7167 10.588 21.7166 11.03V15.0633C21.7166 15.5054 21.8922 15.9293 22.2048 16.2418C22.5174 16.5544 22.9413 16.73 23.3833 16.73H27.4166C27.8586 16.7299 28.2825 16.5542 28.595 16.2417L36.2283 8.60832C36.5408 8.29578 36.7163 7.87193 36.7163 7.42999C36.7163 6.98805 36.5408 6.5642 36.2283 6.25166V6.25166ZM26.7283 13.3967H25.05V11.72L31.0166 5.75332L32.6933 7.42999L26.7283 13.3967ZM31.6666 18.3333C31.2246 18.3333 30.8007 18.5089 30.4881 18.8215C30.1756 19.134 30 19.558 30 20V23.9867L27.5333 21.52C26.6646 20.6524 25.487 20.165 24.2591 20.165C23.0313 20.165 21.8537 20.6524 20.985 21.52L19.8216 22.6817L15.6783 18.5383C14.8106 17.672 13.6345 17.1854 12.4083 17.1854C11.1821 17.1854 10.0061 17.672 9.13831 18.5383L6.66665 21.01V11.6667C6.66709 11.2248 6.84282 10.8011 7.15529 10.4886C7.46775 10.1762 7.89142 10.0004 8.33331 9.99999H18.3333C18.7753 9.99999 19.1993 9.8244 19.5118 9.51183C19.8244 9.19927 20 8.77535 20 8.33332C20 7.8913 19.8244 7.46737 19.5118 7.15481C19.1993 6.84225 18.7753 6.66666 18.3333 6.66666H8.33331C7.00764 6.66798 5.73664 7.19519 4.79924 8.13259C3.86185 9.06998 3.33464 10.341 3.33331 11.6667V31.6667C3.33464 32.9923 3.86185 34.2633 4.79924 35.2007C5.73664 36.1381 7.00764 36.6653 8.33331 36.6667H28.3333C29.659 36.6653 30.93 36.1381 31.8674 35.2007C32.8048 34.2633 33.332 32.9923 33.3333 31.6667V20C33.3333 19.558 33.1577 19.134 32.8452 18.8215C32.5326 18.5089 32.1087 18.3333 31.6666 18.3333ZM8.33331 33.3333C7.89142 33.3329 7.46775 33.1571 7.15529 32.8447C6.84282 32.5322 6.66709 32.1085 6.66665 31.6667V25.7233L11.495 20.895C11.7423 20.6625 12.0689 20.533 12.4083 20.533C12.7477 20.533 13.0744 20.6625 13.3216 20.895L18.6016 26.1733C18.6166 26.19 18.6216 26.21 18.635 26.2233L25.7466 33.3333H8.33331ZM30 31.6667C29.9916 31.988 29.8878 32.2996 29.7016 32.5617L22.1783 25.0383L23.3416 23.875C23.5852 23.6328 23.9148 23.4968 24.2583 23.4968C24.6018 23.4968 24.9314 23.6328 25.175 23.875L30 28.7V31.6667Z" fill="#363636"/>
</svg>
