<svg width="20" height="20" viewBox="0 0 20 20" fill="none" xmlns="http://www.w3.org/2000/svg">
<path d="M10.8333 16.6667H5C4.77899 16.6667 4.56702 16.579 4.41074 16.4227C4.25446 16.2664 4.16667 16.0544 4.16667 15.8334V4.16675C4.16667 3.94573 4.25446 3.73377 4.41074 3.57749C4.56702 3.42121 4.77899 3.33341 5 3.33341H9.16667V5.83341C9.16667 6.49646 9.43006 7.13234 9.8989 7.60118C10.3677 8.07002 11.0036 8.33341 11.6667 8.33341H14.1667V10.0001C14.1667 10.2211 14.2545 10.4331 14.4107 10.5893C14.567 10.7456 14.779 10.8334 15 10.8334C15.221 10.8334 15.433 10.7456 15.5893 10.5893C15.7455 10.4331 15.8333 10.2211 15.8333 10.0001V7.45008C15.8247 7.37353 15.8079 7.29811 15.7833 7.22508V7.15008C15.7433 7.0644 15.6898 6.98564 15.625 6.91675L10.625 1.91675C10.5561 1.85193 10.4774 1.79848 10.3917 1.75841C10.3668 1.75488 10.3415 1.75488 10.3167 1.75841C10.232 1.70987 10.1385 1.6787 10.0417 1.66675H5C4.33696 1.66675 3.70107 1.93014 3.23223 2.39898C2.76339 2.86782 2.5 3.50371 2.5 4.16675V15.8334C2.5 16.4965 2.76339 17.1323 3.23223 17.6012C3.70107 18.07 4.33696 18.3334 5 18.3334H10.8333C11.0543 18.3334 11.2663 18.2456 11.4226 18.0893C11.5789 17.9331 11.6667 17.7211 11.6667 17.5001C11.6667 17.2791 11.5789 17.0671 11.4226 16.9108C11.2663 16.7545 11.0543 16.6667 10.8333 16.6667ZM10.8333 4.50841L12.9917 6.66675H11.6667C11.4457 6.66675 11.2337 6.57895 11.0774 6.42267C10.9211 6.26639 10.8333 6.05443 10.8333 5.83341V4.50841ZM6.66667 6.66675C6.44565 6.66675 6.23369 6.75455 6.07741 6.91083C5.92113 7.06711 5.83333 7.27907 5.83333 7.50008C5.83333 7.7211 5.92113 7.93306 6.07741 8.08934C6.23369 8.24562 6.44565 8.33341 6.66667 8.33341H7.5C7.72101 8.33341 7.93297 8.24562 8.08926 8.08934C8.24554 7.93306 8.33333 7.7211 8.33333 7.50008C8.33333 7.27907 8.24554 7.06711 8.08926 6.91083C7.93297 6.75455 7.72101 6.66675 7.5 6.66675H6.66667ZM11.6667 10.0001H6.66667C6.44565 10.0001 6.23369 10.0879 6.07741 10.2442C5.92113 10.4004 5.83333 10.6124 5.83333 10.8334C5.83333 11.0544 5.92113 11.2664 6.07741 11.4227C6.23369 11.5789 6.44565 11.6667 6.66667 11.6667H11.6667C11.8877 11.6667 12.0996 11.5789 12.2559 11.4227C12.4122 11.2664 12.5 11.0544 12.5 10.8334C12.5 10.6124 12.4122 10.4004 12.2559 10.2442C12.0996 10.0879 11.8877 10.0001 11.6667 10.0001ZM17.2583 14.4084L15.5917 12.7417C15.5124 12.6659 15.419 12.6064 15.3167 12.5667C15.1138 12.4834 14.8862 12.4834 14.6833 12.5667C14.581 12.6064 14.4876 12.6659 14.4083 12.7417L12.7417 14.4084C12.5847 14.5653 12.4966 14.7782 12.4966 15.0001C12.4966 15.222 12.5847 15.4348 12.7417 15.5917C12.8986 15.7487 13.1114 15.8368 13.3333 15.8368C13.5553 15.8368 13.7681 15.7487 13.925 15.5917L14.1667 15.3417V17.5001C14.1667 17.7211 14.2545 17.9331 14.4107 18.0893C14.567 18.2456 14.779 18.3334 15 18.3334C15.221 18.3334 15.433 18.2456 15.5893 18.0893C15.7455 17.9331 15.8333 17.7211 15.8333 17.5001V15.3417L16.075 15.5917C16.1525 15.6699 16.2446 15.7319 16.3462 15.7742C16.4477 15.8165 16.5567 15.8382 16.6667 15.8382C16.7767 15.8382 16.8856 15.8165 16.9871 15.7742C17.0887 15.7319 17.1809 15.6699 17.2583 15.5917C17.3364 15.5143 17.3984 15.4221 17.4407 15.3206C17.4831 15.219 17.5048 15.1101 17.5048 15.0001C17.5048 14.8901 17.4831 14.7811 17.4407 14.6796C17.3984 14.5781 17.3364 14.4859 17.2583 14.4084ZM10 15.0001C10.221 15.0001 10.433 14.9123 10.5893 14.756C10.7455 14.5997 10.8333 14.3878 10.8333 14.1667C10.8333 13.9457 10.7455 13.7338 10.5893 13.5775C10.433 13.4212 10.221 13.3334 10 13.3334H6.66667C6.44565 13.3334 6.23369 13.4212 6.07741 13.5775C5.92113 13.7338 5.83333 13.9457 5.83333 14.1667C5.83333 14.3878 5.92113 14.5997 6.07741 14.756C6.23369 14.9123 6.44565 15.0001 6.66667 15.0001H10Z" fill="#241D0A"/>
</svg>
