<svg width="20" height="20" viewBox="0 0 20 20" fill="none" xmlns="http://www.w3.org/2000/svg">
<path d="M8.09162 5.24162C8.01415 5.16351 7.92198 5.10151 7.82043 5.05921C7.71888 5.0169 7.60996 4.99512 7.49995 4.99512C7.38994 4.99512 7.28102 5.0169 7.17947 5.05921C7.07792 5.10151 6.98575 5.16351 6.90828 5.24162L2.74162 9.40828C2.66351 9.48575 2.60151 9.57792 2.55921 9.67947C2.5169 9.78102 2.49512 9.88994 2.49512 9.99995C2.49512 10.11 2.5169 10.2189 2.55921 10.3204C2.60151 10.422 2.66351 10.5141 2.74162 10.5916L6.90828 14.7583C6.98575 14.8364 7.07792 14.8984 7.17947 14.9407C7.28102 14.983 7.38994 15.0048 7.49995 15.0048C7.60996 15.0048 7.71888 14.983 7.82043 14.9407C7.92198 14.8984 8.01415 14.8364 8.09162 14.7583C8.16972 14.6808 8.23172 14.5886 8.27402 14.4871C8.31633 14.3855 8.33811 14.2766 8.33811 14.1666C8.33811 14.0566 8.31633 13.9477 8.27402 13.8461C8.23172 13.7446 8.16972 13.6524 8.09162 13.5749L4.50828 9.99995L8.09162 6.42495C8.16972 6.34748 8.23172 6.25531 8.27402 6.15376C8.31633 6.05221 8.33811 5.94329 8.33811 5.83328C8.33811 5.72327 8.31633 5.61435 8.27402 5.5128C8.23172 5.41125 8.16972 5.31908 8.09162 5.24162ZM17.2583 9.40828L13.0916 5.24162C13.0139 5.16392 12.9217 5.10228 12.8202 5.06023C12.7186 5.01818 12.6098 4.99654 12.4999 4.99654C12.278 4.99654 12.0652 5.0847 11.9083 5.24162C11.8306 5.31931 11.7689 5.41156 11.7269 5.51307C11.6848 5.61459 11.6632 5.7234 11.6632 5.83328C11.6632 6.0552 11.7514 6.26803 11.9083 6.42495L15.4916 9.99995L11.9083 13.5749C11.8302 13.6524 11.7682 13.7446 11.7259 13.8461C11.6836 13.9477 11.6618 14.0566 11.6618 14.1666C11.6618 14.2766 11.6836 14.3855 11.7259 14.4871C11.7682 14.5886 11.8302 14.6808 11.9083 14.7583C11.9858 14.8364 12.0779 14.8984 12.1795 14.9407C12.281 14.983 12.3899 15.0048 12.4999 15.0048C12.61 15.0048 12.7189 14.983 12.8204 14.9407C12.922 14.8984 13.0141 14.8364 13.0916 14.7583L17.2583 10.5916C17.3364 10.5141 17.3984 10.422 17.4407 10.3204C17.483 10.2189 17.5048 10.11 17.5048 9.99995C17.5048 9.88994 17.483 9.78102 17.4407 9.67947C17.3984 9.57792 17.3364 9.48575 17.2583 9.40828Z" fill="#363636"/>
</svg>
