<svg width="40" height="40" viewBox="0 0 40 40" fill="none" xmlns="http://www.w3.org/2000/svg">
<path d="M16.1834 10.4834C16.0284 10.3271 15.8441 10.2031 15.641 10.1185C15.4379 10.0339 15.22 9.99036 15 9.99036C14.78 9.99036 14.5622 10.0339 14.3591 10.1185C14.156 10.2031 13.9716 10.3271 13.8167 10.4834L5.48335 18.8167C5.32714 18.9716 5.20315 19.156 5.11853 19.3591C5.03392 19.5622 4.99036 19.78 4.99036 20C4.99036 20.22 5.03392 20.4379 5.11853 20.641C5.20315 20.8441 5.32714 21.0284 5.48335 21.1834L13.8167 29.5167C13.9716 29.6729 14.156 29.7969 14.3591 29.8815C14.5622 29.9661 14.78 30.0097 15 30.0097C15.22 30.0097 15.4379 29.9661 15.641 29.8815C15.8441 29.7969 16.0284 29.6729 16.1834 29.5167C16.3396 29.3617 16.4636 29.1774 16.5482 28.9743C16.6328 28.7712 16.6764 28.5534 16.6764 28.3334C16.6764 28.1133 16.6328 27.8955 16.5482 27.6924C16.4636 27.4893 16.3396 27.305 16.1834 27.15L9.01669 20L16.1834 12.85C16.3396 12.6951 16.4636 12.5107 16.5482 12.3076C16.6328 12.1045 16.6764 11.8867 16.6764 11.6667C16.6764 11.4467 16.6328 11.2288 16.5482 11.0257C16.4636 10.8226 16.3396 10.6383 16.1834 10.4834ZM34.5167 18.8167L26.1834 10.4834C26.028 10.328 25.8435 10.2047 25.6404 10.1206C25.4374 10.0365 25.2198 9.9932 25 9.9932C24.5562 9.9932 24.1305 10.1695 23.8167 10.4834C23.6613 10.6388 23.538 10.8232 23.4539 11.0263C23.3698 11.2293 23.3265 11.4469 23.3265 11.6667C23.3265 12.1105 23.5028 12.5362 23.8167 12.85L30.9834 20L23.8167 27.15C23.6605 27.305 23.5365 27.4893 23.4519 27.6924C23.3673 27.8955 23.3237 28.1133 23.3237 28.3334C23.3237 28.5534 23.3673 28.7712 23.4519 28.9743C23.5365 29.1774 23.6605 29.3617 23.8167 29.5167C23.9716 29.6729 24.156 29.7969 24.3591 29.8815C24.5622 29.9661 24.78 30.0097 25 30.0097C25.22 30.0097 25.4379 29.9661 25.641 29.8815C25.8441 29.7969 26.0284 29.6729 26.1834 29.5167L34.5167 21.1834C34.6729 21.0284 34.7969 20.8441 34.8815 20.641C34.9661 20.4379 35.0097 20.22 35.0097 20C35.0097 19.78 34.9661 19.5622 34.8815 19.3591C34.7969 19.156 34.6729 18.9716 34.5167 18.8167V18.8167Z" fill="#363636"/>
</svg>
