<svg width="20" height="20" viewBox="0 0 20 20" fill="none" xmlns="http://www.w3.org/2000/svg">
<path d="M15 9.01675C14.779 9.01675 14.567 9.10455 14.4108 9.26083C14.2545 9.41711 14.1667 9.62907 14.1667 9.85008V15.8334C14.1667 16.0544 14.0789 16.2664 13.9226 16.4227C13.7663 16.579 13.5544 16.6667 13.3334 16.6667H4.16669C3.94567 16.6667 3.73371 16.579 3.57743 16.4227C3.42115 16.2664 3.33335 16.0544 3.33335 15.8334V6.66675C3.33335 6.44573 3.42115 6.23377 3.57743 6.07749C3.73371 5.92121 3.94567 5.83341 4.16669 5.83341H10.15C10.371 5.83341 10.583 5.74562 10.7393 5.58934C10.8956 5.43306 10.9834 5.2211 10.9834 5.00008C10.9834 4.77907 10.8956 4.56711 10.7393 4.41083C10.583 4.25455 10.371 4.16675 10.15 4.16675H4.16669C3.50365 4.16675 2.86776 4.43014 2.39892 4.89898C1.93008 5.36782 1.66669 6.00371 1.66669 6.66675V15.8334C1.66669 16.4965 1.93008 17.1323 2.39892 17.6012C2.86776 18.07 3.50365 18.3334 4.16669 18.3334H13.3334C13.9964 18.3334 14.6323 18.07 15.1011 17.6012C15.57 17.1323 15.8334 16.4965 15.8334 15.8334V9.85008C15.8334 9.62907 15.7456 9.41711 15.5893 9.26083C15.433 9.10455 15.221 9.01675 15 9.01675ZM18.2667 2.18341C18.1821 1.97979 18.0203 1.81798 17.8167 1.73341C17.7165 1.69071 17.6089 1.66806 17.5 1.66675H12.5C12.279 1.66675 12.067 1.75455 11.9108 1.91083C11.7545 2.06711 11.6667 2.27907 11.6667 2.50008C11.6667 2.7211 11.7545 2.93306 11.9108 3.08934C12.067 3.24562 12.279 3.33341 12.5 3.33341H15.4917L6.90835 11.9084C6.83025 11.9859 6.76825 12.0781 6.72594 12.1796C6.68364 12.2811 6.66185 12.3901 6.66185 12.5001C6.66185 12.6101 6.68364 12.719 6.72594 12.8206C6.76825 12.9221 6.83025 13.0143 6.90835 13.0917C6.98582 13.1699 7.07799 13.2318 7.17954 13.2742C7.28109 13.3165 7.39001 13.3382 7.50002 13.3382C7.61003 13.3382 7.71895 13.3165 7.8205 13.2742C7.92205 13.2318 8.01422 13.1699 8.09169 13.0917L16.6667 4.50841V7.50008C16.6667 7.72109 16.7545 7.93306 16.9108 8.08934C17.067 8.24562 17.279 8.33341 17.5 8.33341C17.721 8.33341 17.933 8.24562 18.0893 8.08934C18.2456 7.93306 18.3334 7.72109 18.3334 7.50008V2.50008C18.332 2.39118 18.3094 2.2836 18.2667 2.18341V2.18341Z" fill="#363636"/>
</svg>
