<svg width="20" height="20" viewBox="0 0 20 20" fill="none" xmlns="http://www.w3.org/2000/svg">
<path d="M10.8334 9.16675H5.83335C5.61234 9.16675 5.40038 9.25455 5.2441 9.41083C5.08782 9.56711 5.00002 9.77907 5.00002 10.0001C5.00002 10.2211 5.08782 10.4331 5.2441 10.5893C5.40038 10.7456 5.61234 10.8334 5.83335 10.8334H10.8334C11.0544 10.8334 11.2663 10.7456 11.4226 10.5893C11.5789 10.4331 11.6667 10.2211 11.6667 10.0001C11.6667 9.77907 11.5789 9.56711 11.4226 9.41083C11.2663 9.25455 11.0544 9.16675 10.8334 9.16675ZM14.1667 5.83341H5.83335C5.61234 5.83341 5.40038 5.92121 5.2441 6.07749C5.08782 6.23377 5.00002 6.44573 5.00002 6.66675C5.00002 6.88776 5.08782 7.09972 5.2441 7.256C5.40038 7.41228 5.61234 7.50008 5.83335 7.50008H14.1667C14.3877 7.50008 14.5997 7.41228 14.7559 7.256C14.9122 7.09972 15 6.88776 15 6.66675C15 6.44573 14.9122 6.23377 14.7559 6.07749C14.5997 5.92121 14.3877 5.83341 14.1667 5.83341ZM15.8334 1.66675H4.16669C3.50365 1.66675 2.86776 1.93014 2.39892 2.39898C1.93008 2.86782 1.66669 3.50371 1.66669 4.16675V12.5001C1.66669 13.1631 1.93008 13.799 2.39892 14.2678C2.86776 14.7367 3.50365 15.0001 4.16669 15.0001H13.825L16.9084 18.0917C16.9862 18.169 17.0786 18.2301 17.1801 18.2716C17.2816 18.313 17.3903 18.334 17.5 18.3334C17.6093 18.3362 17.7178 18.3134 17.8167 18.2667C17.9689 18.2042 18.0991 18.0981 18.1911 17.9616C18.283 17.8252 18.3325 17.6646 18.3334 17.5001V4.16675C18.3334 3.50371 18.07 2.86782 17.6011 2.39898C17.1323 1.93014 16.4964 1.66675 15.8334 1.66675ZM16.6667 15.4917L14.7584 13.5751C14.6805 13.4978 14.5881 13.4367 14.4866 13.3953C14.3851 13.3538 14.2764 13.3328 14.1667 13.3334H4.16669C3.94567 13.3334 3.73371 13.2456 3.57743 13.0893C3.42115 12.9331 3.33335 12.7211 3.33335 12.5001V4.16675C3.33335 3.94573 3.42115 3.73377 3.57743 3.57749C3.73371 3.42121 3.94567 3.33341 4.16669 3.33341H15.8334C16.0544 3.33341 16.2663 3.42121 16.4226 3.57749C16.5789 3.73377 16.6667 3.94573 16.6667 4.16675V15.4917Z" fill="#363636"/>
</svg>
