<svg width="20" height="20" viewBox="0 0 20 20" fill="none" xmlns="http://www.w3.org/2000/svg">
<path d="M16.4 5.73345C15.5508 5.28715 14.5606 5.19142 13.6417 5.46678C13.5969 4.53217 13.1941 3.65064 12.5169 3.00503C11.8396 2.35942 10.9398 1.99927 10.0042 1.99927C9.06848 1.99927 8.1687 2.35942 7.49144 3.00503C6.81418 3.65064 6.4114 4.53217 6.36666 5.46678C5.45023 5.19079 4.4628 5.2773 3.60832 5.70845C2.97907 6.03918 2.46038 6.54686 2.11621 7.16887C1.77204 7.79088 1.61744 8.50002 1.67149 9.20884C1.72554 9.91766 1.98586 10.5952 2.42036 11.1578C2.85486 11.7204 3.44453 12.1436 4.11666 12.3751C3.68765 12.9856 3.45507 13.7123 3.44999 14.4584C3.45369 14.6679 3.47319 14.8769 3.50832 15.0834C3.64866 15.9297 4.08524 16.6986 4.74011 17.2527C5.39498 17.8068 6.22548 18.1101 7.08332 18.1084C7.26089 18.1206 7.43909 18.1206 7.61666 18.1084C8.56919 17.9584 9.42488 17.4408 9.99999 16.6668C10.5811 17.4283 11.436 17.9334 12.3833 18.0751C12.5609 18.0873 12.7391 18.0873 12.9167 18.0751C13.5818 18.0743 14.2339 17.891 14.802 17.5451C15.3701 17.1992 15.8324 16.704 16.1384 16.1134C16.4444 15.5229 16.5825 14.8597 16.5375 14.1961C16.4925 13.5325 16.2662 12.894 15.8833 12.3501C16.5587 12.1226 17.1523 11.7015 17.5902 11.1392C18.0281 10.5769 18.2909 9.89818 18.346 9.18761C18.401 8.47705 18.2459 7.76598 17.8999 7.14291C17.5539 6.51985 17.0323 6.0123 16.4 5.68345V5.73345ZM8.61666 4.11678C8.98894 3.76024 9.48451 3.56121 9.99999 3.56121C10.5155 3.56121 11.011 3.76024 11.3833 4.11678C11.6676 4.40144 11.8606 4.7643 11.9377 5.15909C12.0149 5.55388 11.9728 5.96271 11.8167 6.33345L11.6 6.82511L11.05 7.30845C10.7118 7.19238 10.3575 7.1305 9.99999 7.12511C9.53797 7.12555 9.08108 7.22204 8.65832 7.40845L8.19166 6.33345C8.02993 5.96435 7.98397 5.55487 8.05985 5.1591C8.13573 4.76333 8.32988 4.39989 8.61666 4.11678ZM3.53332 9.81678C3.34729 9.40742 3.30651 8.94683 3.41773 8.51115C3.52895 8.07547 3.78551 7.69079 4.145 7.42068C4.50448 7.15058 4.94538 7.01124 5.3948 7.02568C5.84422 7.04012 6.27525 7.20749 6.61666 7.50011L7.02499 7.85845L7.31666 8.52511C6.8992 9.08366 6.67142 9.76114 6.66666 10.4584C6.65677 10.5833 6.65677 10.7086 6.66666 10.8334H6.20832L5.50832 10.9001C5.10795 10.9424 4.70422 10.8612 4.35123 10.6676C3.99825 10.474 3.71287 10.1771 3.53332 9.81678ZM9.03332 14.8834C8.933 15.3283 8.68244 15.725 8.32384 16.0067C7.96524 16.2885 7.5205 16.438 7.06453 16.4302C6.60856 16.4224 6.16922 16.2576 5.8205 15.9638C5.47178 15.6699 5.23498 15.2648 5.14999 14.8168C5.142 14.7002 5.142 14.5833 5.14999 14.4668C5.15301 14.1281 5.24459 13.796 5.41563 13.5037C5.58667 13.2113 5.83122 12.9687 6.12499 12.8001L6.54999 12.5001L7.30833 12.4168C7.78629 13.0817 8.49228 13.5474 9.29166 13.7251L9.03332 14.8834ZM9.99999 12.1251C9.67036 12.1251 9.34812 12.0274 9.07404 11.8442C8.79996 11.6611 8.58634 11.4008 8.46019 11.0963C8.33405 10.7917 8.30104 10.4566 8.36535 10.1333C8.42966 9.80999 8.58839 9.51302 8.82148 9.27993C9.05457 9.04685 9.35154 8.88811 9.67484 8.8238C9.99814 8.7595 10.3333 8.7925 10.6378 8.91865C10.9423 9.04479 11.2026 9.25841 11.3858 9.5325C11.5689 9.80658 11.6667 10.1288 11.6667 10.4584C11.6667 10.9005 11.4911 11.3244 11.1785 11.637C10.8659 11.9495 10.442 12.1251 9.99999 12.1251ZM14.85 14.8084C14.764 15.3169 14.4818 15.7713 14.064 16.0737C13.6463 16.376 13.1265 16.5023 12.6167 16.4251C12.2149 16.3685 11.84 16.1905 11.5421 15.915C11.2443 15.6395 11.0377 15.2796 10.95 14.8834L10.8333 14.3834L11.0083 13.6168C11.7771 13.3664 12.4286 12.8452 12.8417 12.1501L13.2583 12.4001H13.3333L13.8833 12.7251C14.2407 12.9292 14.5257 13.2393 14.6989 13.6126C14.8721 13.9859 14.9249 14.4038 14.85 14.8084ZM16.4667 9.80845C16.3028 10.1397 16.0499 10.4188 15.7364 10.6145C15.423 10.8103 15.0612 10.9149 14.6917 10.9168H14.4917L13.9583 10.8334L13.3333 10.4918C13.3322 9.68154 13.0359 8.89946 12.5 8.29178L12.8583 7.98345L13.3833 7.50011C13.7257 7.19573 14.1632 7.01984 14.621 7.00255C15.0788 6.98527 15.5284 7.12767 15.8927 7.40536C16.2571 7.68306 16.5136 8.07879 16.6183 8.52478C16.723 8.97077 16.6694 9.43929 16.4667 9.85011V9.80845Z" fill="#363636"/>
</svg>
