<svg width="40" height="40" viewBox="0 0 40 40" fill="none" xmlns="http://www.w3.org/2000/svg">
<path d="M28.4833 4.70003C26.9505 3.43934 25.1555 2.53675 23.2294 2.05811C21.3033 1.57946 19.2947 1.53685 17.35 1.93337C14.7606 2.4564 12.385 3.73682 10.5245 5.61217C8.66395 7.48751 7.40244 9.87325 6.89998 12.4667C6.53306 14.4112 6.59974 16.4128 7.09525 18.3286C7.59077 20.2444 8.50292 22.0273 9.76665 23.55C10.9395 24.8735 11.6117 26.5659 11.6667 28.3334V33.3334C11.6667 34.6594 12.1934 35.9312 13.1311 36.8689C14.0688 37.8066 15.3406 38.3334 16.6667 38.3334H23.3333C24.6594 38.3334 25.9312 37.8066 26.8689 36.8689C27.8065 35.9312 28.3333 34.6594 28.3333 33.3334V28.65C28.3893 26.6986 29.1062 24.8241 30.3666 23.3334C32.5752 20.6013 33.6163 17.1081 33.2636 13.6127C32.911 10.1174 31.1931 6.90251 28.4833 4.6667V4.70003ZM25 33.3334C25 33.7754 24.8244 34.1993 24.5118 34.5119C24.1993 34.8244 23.7753 35 23.3333 35H16.6667C16.2246 35 15.8007 34.8244 15.4881 34.5119C15.1756 34.1993 15 33.7754 15 33.3334V31.6667H25V33.3334ZM27.7833 21.2667C26.1075 23.2544 25.1298 25.7368 25 28.3334H21.6667V23.3334C21.6667 22.8913 21.4911 22.4674 21.1785 22.1549C20.8659 21.8423 20.442 21.6667 20 21.6667C19.558 21.6667 19.134 21.8423 18.8215 22.1549C18.5089 22.4674 18.3333 22.8913 18.3333 23.3334V28.3334H15C14.956 25.7802 14.0116 23.3246 12.3333 21.4C11.2261 20.0734 10.4815 18.4824 10.1722 16.7823C9.86287 15.0822 9.9994 13.3309 10.5685 11.6992C11.1375 10.0676 12.1197 8.61127 13.4192 7.47224C14.7187 6.33321 16.2912 5.55037 17.9833 5.20003C19.4376 4.90061 20.9403 4.92877 22.3823 5.28248C23.8243 5.63619 25.1694 6.30657 26.3201 7.24495C27.4707 8.18333 28.3979 9.36616 29.0344 10.7076C29.671 12.049 30.0008 13.5153 30 15C30.0123 17.2831 29.2285 19.4991 27.7833 21.2667V21.2667Z" fill="#363636"/>
</svg>
