<svg width="30" height="30" viewBox="0 0 30 30" fill="none" xmlns="http://www.w3.org/2000/svg">
<path d="M19.425 14.1125L12.35 7.05005C12.2338 6.93289 12.0956 6.83989 11.9433 6.77643C11.7909 6.71297 11.6276 6.6803 11.4625 6.6803C11.2975 6.6803 11.1341 6.71297 10.9818 6.77643C10.8295 6.83989 10.6912 6.93289 10.575 7.05005C10.3422 7.28425 10.2115 7.60106 10.2115 7.9313C10.2115 8.26153 10.3422 8.57834 10.575 8.81255L16.7625 15.0625L10.575 21.25C10.3422 21.4842 10.2115 21.8011 10.2115 22.1313C10.2115 22.4615 10.3422 22.7783 10.575 23.0125C10.6908 23.1307 10.8289 23.2246 10.9812 23.289C11.1336 23.3534 11.2972 23.3869 11.4625 23.3875C11.6279 23.3869 11.7915 23.3534 11.9439 23.289C12.0962 23.2246 12.2343 23.1307 12.35 23.0125L19.425 15.95C19.5519 15.833 19.6532 15.6909 19.7224 15.5328C19.7917 15.3747 19.8275 15.2039 19.8275 15.0313C19.8275 14.8587 19.7917 14.6879 19.7224 14.5298C19.6532 14.3717 19.5519 14.2296 19.425 14.1125Z" fill="#363636"/>
</svg>
