<svg width="20" height="20" viewBox="0 0 20 20" fill="none" xmlns="http://www.w3.org/2000/svg">
<path d="M15.8334 3.33325H4.16669C3.50365 3.33325 2.86776 3.59664 2.39892 4.06549C1.93008 4.53433 1.66669 5.17021 1.66669 5.83325V14.1666C1.66669 14.8296 1.93008 15.4655 2.39892 15.9344C2.86776 16.4032 3.50365 16.6666 4.16669 16.6666H15.8334C16.4964 16.6666 17.1323 16.4032 17.6011 15.9344C18.07 15.4655 18.3334 14.8296 18.3334 14.1666V5.83325C18.3334 5.17021 18.07 4.53433 17.6011 4.06549C17.1323 3.59664 16.4964 3.33325 15.8334 3.33325V3.33325ZM15.4917 4.99992L10.5917 9.89992C10.5142 9.97803 10.4221 10.04 10.3205 10.0823C10.219 10.1246 10.11 10.1464 10 10.1464C9.89001 10.1464 9.78109 10.1246 9.67954 10.0823C9.57799 10.04 9.48582 9.97803 9.40835 9.89992L4.50835 4.99992H15.4917ZM16.6667 14.1666C16.6667 14.3876 16.5789 14.5996 16.4226 14.7558C16.2663 14.9121 16.0544 14.9999 15.8334 14.9999H4.16669C3.94567 14.9999 3.73371 14.9121 3.57743 14.7558C3.42115 14.5996 3.33335 14.3876 3.33335 14.1666V6.17492L8.23335 11.0749C8.7021 11.5431 9.33752 11.8061 10 11.8061C10.6625 11.8061 11.2979 11.5431 11.7667 11.0749L16.6667 6.17492V14.1666Z" fill="#363636"/>
</svg>
