<svg width="20" height="20" viewBox="0 0 20 20" fill="none" xmlns="http://www.w3.org/2000/svg">
<path d="M9.40836 12.7417C9.37252 12.7813 9.33912 12.8231 9.30836 12.8667C9.27682 12.9132 9.2516 12.9636 9.23336 13.0167C9.20933 13.064 9.19248 13.1145 9.18336 13.1667C9.17927 13.2222 9.17927 13.2779 9.18336 13.3334C9.18054 13.4427 9.20337 13.5512 9.25002 13.6501C9.28745 13.7535 9.34716 13.8474 9.42493 13.9252C9.50269 14.0029 9.59661 14.0627 9.70002 14.1001C9.79977 14.1442 9.90763 14.1669 10.0167 14.1669C10.1258 14.1669 10.2336 14.1442 10.3334 14.1001C10.4368 14.0627 10.5307 14.0029 10.6085 13.9252C10.6862 13.8474 10.7459 13.7535 10.7834 13.6501C10.8204 13.5488 10.8373 13.4412 10.8334 13.3334C10.834 13.2237 10.813 13.115 10.7715 13.0135C10.73 12.912 10.6689 12.8196 10.5917 12.7417C10.5142 12.6636 10.4221 12.6016 10.3205 12.5593C10.219 12.517 10.11 12.4952 10 12.4952C9.89001 12.4952 9.78109 12.517 9.67954 12.5593C9.57799 12.6016 9.48583 12.6636 9.40836 12.7417V12.7417ZM10 1.66675C8.35185 1.66675 6.74068 2.15549 5.37027 3.07117C3.99986 3.98685 2.93176 5.28834 2.30103 6.81105C1.6703 8.33377 1.50527 10.0093 1.82681 11.6258C2.14836 13.2423 2.94203 14.7272 4.10747 15.8926C5.27291 17.0581 6.75776 17.8518 8.37427 18.1733C9.99078 18.4948 11.6663 18.3298 13.1891 17.6991C14.7118 17.0683 16.0133 16.0002 16.9289 14.6298C17.8446 13.2594 18.3334 11.6483 18.3334 10.0001C18.3334 8.90573 18.1178 7.8221 17.699 6.81105C17.2802 5.80001 16.6664 4.88135 15.8926 4.10752C15.1188 3.3337 14.2001 2.71987 13.1891 2.30109C12.178 1.8823 11.0944 1.66675 10 1.66675V1.66675ZM10 16.6667C8.68148 16.6667 7.39255 16.2758 6.29622 15.5432C5.19989 14.8107 4.34541 13.7695 3.84083 12.5513C3.33624 11.3331 3.20422 9.99269 3.46146 8.69948C3.71869 7.40627 4.35363 6.21839 5.28598 5.28604C6.21833 4.35369 7.40622 3.71875 8.69942 3.46151C9.99263 3.20428 11.3331 3.3363 12.5512 3.84088C13.7694 4.34547 14.8106 5.19995 15.5432 6.29628C16.2757 7.39261 16.6667 8.68154 16.6667 10.0001C16.6667 11.7682 15.9643 13.4639 14.7141 14.7141C13.4638 15.9644 11.7681 16.6667 10 16.6667V16.6667ZM10 5.83341C9.56091 5.83313 9.12947 5.94852 8.74911 6.16795C8.36876 6.38739 8.05291 6.70313 7.83336 7.08341C7.77306 7.17826 7.73258 7.28433 7.71434 7.39523C7.69609 7.50613 7.70048 7.61957 7.72721 7.72874C7.75395 7.8379 7.8025 7.94053 7.86993 8.03044C7.93736 8.12036 8.02228 8.19571 8.11958 8.25195C8.21689 8.3082 8.32456 8.34418 8.43613 8.35773C8.54771 8.37128 8.66087 8.36213 8.76881 8.33081C8.87675 8.2995 8.97724 8.24667 9.06423 8.17551C9.15123 8.10436 9.22293 8.01634 9.27502 7.91675C9.34844 7.78958 9.45416 7.68407 9.58148 7.6109C9.70879 7.53773 9.85318 7.4995 10 7.50008C10.221 7.50008 10.433 7.58788 10.5893 7.74416C10.7456 7.90044 10.8334 8.1124 10.8334 8.33342C10.8334 8.55443 10.7456 8.76639 10.5893 8.92267C10.433 9.07895 10.221 9.16675 10 9.16675C9.77901 9.16675 9.56705 9.25455 9.41077 9.41083C9.25449 9.56711 9.16669 9.77907 9.16669 10.0001V10.8334C9.16669 11.0544 9.25449 11.2664 9.41077 11.4227C9.56705 11.579 9.77901 11.6667 10 11.6667C10.221 11.6667 10.433 11.579 10.5893 11.4227C10.7456 11.2664 10.8334 11.0544 10.8334 10.8334V10.6834C11.3845 10.4834 11.8478 10.0961 12.1423 9.58914C12.4368 9.08217 12.5438 8.48782 12.4445 7.90999C12.3452 7.33216 12.046 6.8076 11.5992 6.42801C11.1523 6.04843 10.5863 5.83796 10 5.83341V5.83341Z" fill="#363636"/>
</svg>
